<svg version="1.1" xmlns="http://www.w3.org/2000/svg" xmlns:xlink="http://www.w3.org/1999/xlink" width="24px" height="24px" viewBox="0,0,256,256"><g fill="#696969" fill-rule="nonzero" stroke="none" stroke-width="1" stroke-linecap="butt" stroke-linejoin="miter" stroke-miterlimit="10" stroke-dasharray="" stroke-dashoffset="0" font-family="none" font-weight="none" font-size="none" text-anchor="none" style="mix-blend-mode: normal"><g transform="translate(0,0.672) scale(10.66667,10.66667)"><path d="M24,12c0,4.307 -3.503,7.81 -7.81,7.81c-4.307,0 -7.81,-3.503 -7.81,-7.81h2c0,3.203 2.606,5.81 5.81,5.81c3.204,0 5.81,-2.606 5.81,-5.81c0,-0.893 -0.129,-1.755 -0.35,-2.58l1.588,-1.588c0.484,1.3 0.762,2.701 0.762,4.168zM2,12c0,-5.514 4.486,-10 10,-10c0.893,0 1.755,0.129 2.58,0.35l1.588,-1.588c-1.301,-0.484 -2.701,-0.762 -4.168,-0.762c-6.617,0 -12,5.383 -12,12c0,4.96 2.669,9.288 7.324,11.874l0.972,-1.748c-4.001,-2.223 -6.295,-5.913 -6.295,-10.126zM12,7.758l6.879,-6.879c1.133,-1.133 3.109,-1.133 4.243,0c1.169,1.17 1.169,3.072 0,4.242l-6.878,6.879h-4.243v-4.242zM14,10h1.415l6.292,-6.293c0.39,-0.39 0.39,-1.024 0,-1.414c-0.378,-0.379 -1.037,-0.379 -1.414,0l-6.293,6.293z"></path></g></g></svg>