<svg version="1.1" xmlns="http://www.w3.org/2000/svg" xmlns:xlink="http://www.w3.org/1999/xlink" width="24px" height="24px" viewBox="0,0,256,256"><g fill="#696969" fill-rule="nonzero" stroke="none" stroke-width="1" stroke-linecap="butt" stroke-linejoin="miter" stroke-miterlimit="10" stroke-dasharray="" stroke-dashoffset="0" font-family="none" font-weight="none" font-size="none" text-anchor="none" style="mix-blend-mode: normal"><g transform="translate(0,0.07174) scale(10.66667,10.66667)"><path d="M24,16v5c0,1.657 -1.343,3 -3,3h-5c-2.955,0 -5.535,-1.615 -6.92,-4.004c0.769,-0.006 1.518,-0.091 2.242,-0.248c1.101,1.371 2.787,2.252 4.678,2.252h5c0.552,0 1,-0.448 1,-1v-5c0,-1.891 -0.881,-3.577 -2.252,-4.678c0.156,-0.724 0.242,-1.473 0.248,-2.242c2.389,1.385 4.004,3.965 4.004,6.92zM8.138,18h-4.477c-2.019,0 -3.661,-1.645 -3.661,-3.666v-5.038c0,-4.707 3.823,-8.953 8.349,-9.273c5.315,-0.505 10.126,4.315 9.628,9.628c-0.331,4.682 -4.652,8.349 -9.839,8.349zM15.982,9.511c0.367,-3.95 -3.037,-7.597 -6.994,-7.511c-3.735,-0.038 -6.987,3.423 -6.988,7.296v5.038c0,0.919 0.745,1.666 1.661,1.666h4.477c4.073,0 7.592,-2.911 7.844,-6.489zM9,7.5c-0.828,0 -1.5,0.672 -1.5,1.5c0,0.828 0.672,1.5 1.5,1.5c0.828,0 1.5,-0.672 1.5,-1.5c0,-0.828 -0.672,-1.5 -1.5,-1.5zM5,7.5c-0.828,0 -1.5,0.672 -1.5,1.5c0,0.828 0.672,1.5 1.5,1.5c0.828,0 1.5,-0.672 1.5,-1.5c0,-0.828 -0.672,-1.5 -1.5,-1.5zM13,7.5c-0.828,0 -1.5,0.672 -1.5,1.5c0,0.828 0.672,1.5 1.5,1.5c0.828,0 1.5,-0.672 1.5,-1.5c0,-0.828 -0.672,-1.5 -1.5,-1.5z"></path></g></g></svg>