<svg version="1.1" xmlns="http://www.w3.org/2000/svg" xmlns:xlink="http://www.w3.org/1999/xlink" width="512" height="512" viewBox="0,0,256,256"><g fill="#696969" fill-rule="nonzero" stroke="none" stroke-width="1" stroke-linecap="butt" stroke-linejoin="miter" stroke-miterlimit="10" stroke-dasharray="" stroke-dashoffset="0" font-family="none" font-weight="none" font-size="none" text-anchor="none" style="mix-blend-mode: normal"><g transform="translate(-0.0504,0) scale(0.5,0.5)"><g><path d="M116.352,205.952c-4.715,-45.077 -30.741,-71.168 -60.501,-71.168v0.043c-1.796,-0.002 -3.59,0.09 -5.376,0.277c-31.936,3.285 -54.741,35.157 -49.792,82.923c4.779,45.696 32.405,80.64 62.763,80.64c1.375,0.003 2.75,-0.069 4.117,-0.213c32,-3.329 53.781,-44.801 48.789,-92.502zM63.104,255.744c-12.471,-10.48 -18.467,-25.173 -19.989,-42.155c0,-10.743 -0.102,-21.343 4.672,-30.891c2.653,-4.99 5.888,-5.077 7.125,-5.205l0.943,-0.016c7.189,0 15.91,12.282 18.065,32.89c1.476,16.051 -0.799,32.537 -10.816,45.377z"></path><path d="M180.629,180.267c1.515,0 3.008,0 4.523,-0.235c35.136,-3.669 59.157,-49.237 53.675,-101.76c-5.184,-49.557 -33.814,-78.272 -66.539,-78.272v0c-1.967,0.002 -3.932,0.108 -5.888,0.32c-35.157,3.648 -60.288,38.699 -54.805,91.243c5.269,50.261 35.605,88.704 69.034,88.704zM159.808,50.347c2.149,-4.235 6.271,-7.117 10.987,-7.68c0.497,-0.031 0.996,-0.031 1.493,0v0c9.899,0 21.333,13.76 24.107,40.043c1.993,15.287 -0.404,30.825 -6.912,44.8c-3.883,7.36 -7.787,9.92 -8.853,10.027c-5.483,0 -23.125,-17.365 -26.603,-50.475c-2.224,-12.541 -0.189,-25.465 5.781,-36.715z"></path><path d="M327.765,180.032c1.515,0.149 3.029,0.235 4.523,0.235c33.387,0 63.787,-38.4 69.035,-88.704c5.483,-52.544 -19.648,-87.595 -54.763,-91.243c-1.963,-0.212 -3.935,-0.319 -5.909,-0.32c-32.747,0 -61.376,28.715 -66.56,78.272c-5.483,52.523 18.538,98.133 53.674,101.76zM316.544,82.688c2.731,-26.261 14.123,-40.021 24.107,-40.021c0.49,-0.032 0.982,-0.032 1.472,0c4.711,0.558 8.833,3.432 10.987,7.659c5.992,11.243 8.029,24.174 5.781,36.715c-3.456,33.109 -21.12,50.475 -26.688,50.475c-0.981,0 -4.885,-2.667 -8.768,-10.027c-6.51,-13.975 -8.901,-29.516 -6.891,-44.801z"></path><path d="M256,234.667c-96.896,0 -192,99.008 -192.128,199.872c-2.645,68.245 55.467,92.971 125.867,67.797c42.918,-14.635 89.477,-14.635 132.395,0c16.535,5.583 33.767,8.835 51.2,9.664c61.717,0 74.666,-42.133 74.666,-77.461c0,-100.864 -95.104,-199.872 -192,-199.872zM256,448c-48.085,-7.616 -154.112,60.437 -149.333,-13.461c0,-77.867 75.371,-157.205 149.333,-157.205c73.962,0 149.333,79.339 149.333,157.205c4.822,73.834 -101.013,5.93 -149.333,13.461z"></path><path d="M468.711,157.666l-0.01,0.042c-1.747,-0.417 -3.514,-0.74 -5.295,-0.971c-31.832,-4.172 -61.376,21.579 -67.581,69.197c-5.894,45.566 12.925,85.941 42.464,92.945c1.338,0.32 2.691,0.568 4.056,0.742c31.904,4.145 62.667,-31.182 68.815,-78.749c5.813,-44.948 -13.492,-76.34 -42.449,-83.206zM468.854,235.38c-2.267,15.957 -8.284,31.474 -20.994,41.656c-9.716,-13.075 -12.16,-28.754 -9.724,-45.629c2.479,-10.453 4.826,-20.791 11.673,-28.979c3.733,-4.243 6.901,-3.582 8.134,-3.421l0.921,0.203c6.996,1.658 12.648,15.621 9.99,36.17z"></path></g></g></g></svg>