<svg version="1.1" xmlns="http://www.w3.org/2000/svg" xmlns:xlink="http://www.w3.org/1999/xlink" width="512" height="512" viewBox="0,0,256,256"><g fill="#696969" fill-rule="nonzero" stroke="none" stroke-width="1" stroke-linecap="butt" stroke-linejoin="miter" stroke-miterlimit="10" stroke-dasharray="" stroke-dashoffset="0" font-family="none" font-weight="none" font-size="none" text-anchor="none" style="mix-blend-mode: normal"><g transform="translate(-0.0686,2.07307) scale(10.66667,10.66667)"><path d="M23.836,8.794c-0.42,-1.33686 -1.6658,-2.24105 -3.067,-2.226h-4.369l-1.327,-4.136c-0.42817,-1.33581 -1.67025,-2.24201 -3.073,-2.24201c-1.40275,0 -2.64483,0.9062 -3.073,2.24201l-1.327,4.136h-4.369c-1.39539,0.00199 -2.63144,0.90063 -3.06368,2.22739c-0.43224,1.32676 0.03724,2.78104 1.16368,3.60461l3.556,2.6l-1.352,4.187c-0.44871,1.33364 0.033,2.80359 1.184,3.613c1.13127,0.83539 2.67714,0.82766 3.8,-0.019l3.481,-2.562l3.482,2.559c1.1281,0.82979 2.66263,0.83726 3.79877,0.01851c1.13613,-0.81875 1.61451,-2.27684 1.18423,-3.60951l-1.352,-4.187l3.56,-2.6c1.14043,-0.81403 1.61292,-2.27905 1.163,-3.606zM21.493,10.785l-4.144,3.029c-0.34914,0.2547 -0.49516,0.70486 -0.362,1.116l1.575,4.87c0.16351,0.50676 -0.0185,1.06115 -0.45057,1.37238c-0.43207,0.31123 -1.01556,0.30825 -1.44443,-0.00738l-4.075,-3c-0.35226,-0.25875 -0.83174,-0.25875 -1.184,0l-4.075,3c-0.42872,0.31995 -1.01532,0.32527 -1.44977,0.01315c-0.43445,-0.31212 -0.61662,-0.86974 -0.45023,-1.37815l1.58,-4.87c0.13316,-0.41114 -0.01286,-0.8613 -0.362,-1.116l-4.144,-3.029c-0.42809,-0.31344 -0.60622,-0.86654 -0.44152,-1.3709c0.16471,-0.50436 0.63494,-0.84572 1.16552,-0.8461h5.1c0.43438,-0.00001 0.81908,-0.28045 0.952,-0.694l1.55,-4.831c0.16324,-0.50721 0.63517,-0.85109 1.168,-0.85109c0.53283,0 1.00476,0.34388 1.168,0.85109l1.55,4.831c0.13292,0.41355 0.51762,0.69399 0.952,0.694h5.1c0.53058,0.00037 1.00081,0.34173 1.16552,0.8461c0.16471,0.50436 -0.01342,1.05746 -0.44152,1.3709z"></path></g></g></svg>